<svg version="1.1" viewBox="0.0 0.0 960.0 720.0" fill="none" stroke="none" stroke-linecap="square" stroke-miterlimit="10" xmlns:xlink="http://www.w3.org/1999/xlink" xmlns="http://www.w3.org/2000/svg"><clipPath id="p.0"><path d="m0 0l960.0 0l0 720.0l-960.0 0l0 -720.0z" clip-rule="nonzero"/></clipPath><g clip-path="url(#p.0)"><path fill="#000000" fill-opacity="0.0" d="m0 0l960.0 0l0 720.0l-960.0 0z" fill-rule="evenodd"/><g filter="url(#shadowFilter-p.1)"><use xlink:href="#p.1" transform=""/></g><defs><filter id="shadowFilter-p.1" filterUnits="userSpaceOnUse"><feGaussianBlur in="SourceAlpha" stdDeviation="42.0" result="blur"/><feComponentTransfer in="blur" color-interpolation-filters="sRGB"><feFuncR type="linear" slope="0" intercept="0.0"/><feFuncG type="linear" slope="0" intercept="0.0"/><feFuncB type="linear" slope="0" intercept="0.0"/><feFuncA type="linear" slope="0.72" intercept="0"/></feComponentTransfer></filter></defs><g id="p.1"><path fill="#a7042e" d="m414.46448 282.78864c2.2850037 0 3.9677734 0.47964478 5.048279 1.4389343c1.0982361 0.95925903 1.6473389 1.9372253 1.6473389 2.933899l-7.838135 25.937897c-0.99194336 3.1394348 -2.8252869 5.6123962 -5.5 7.4188232c-2.6569824 1.7939758 -5.3405457 2.6909485 -8.05069 2.6909485c-2.2850037 0 -4.22464 -0.53567505 -5.818817 -1.6070862c-1.576477 -1.0714111 -2.364746 -3.5194397 -2.364746 -7.3440857c0 -3.8371277 0.98309326 -8.259766 2.9492798 -13.267944c1.9661865 -5.0081787 4.6851807 -9.293793 8.156982 -12.856842c3.4895325 -3.5630188 7.413025 -5.3445435 11.770508 -5.3445435zm-116.394104 -0.5793152c2.1610413 0 3.6755066 0.47964478 4.543457 1.4389343c0.88568115 0.95928955 1.4347839 2.7034302 1.6473389 5.232422c-3.365509 0.99664307 -5.048279 3.0647278 -5.048279 6.2041626c0 2.7532654 1.4613342 4.3603516 4.384033 4.8213196c-0.86795044 4.4351196 -2.2850037 8.471558 -4.25119 12.1093445c-1.9484558 3.6377563 -4.23349 6.509369 -6.8550415 8.614807c-2.6038818 2.1054382 -5.207733 3.158142 -7.8115845 3.158142c-3.152954 0 -5.3316956 -0.6291199 -6.5362244 -1.8874207c-1.2044983 -1.2707214 -1.8067322 -3.7436829 -1.8067322 -7.4188232c0 -3.899414 1.0362244 -8.415497 3.108673 -13.548248c2.0724487 -5.132782 4.791443 -9.536743 8.156982 -13.211884c3.3832397 -3.675171 6.872772 -5.5127563 10.468567 -5.5127563zm-84.56476 -28.927841l-24.17868 2.298523l-17.42134 57.519363l-0.04296875 0c-4.995163 3.9118652 -9.591766 6.827057 -13.789825 8.745605c-4.1803284 1.9060974 -9.210907 2.8591614 -15.091736 2.8591614c-4.144928 0 -7.1473236 -0.6665039 -9.007233 -1.9995422c-1.8421631 -1.3454895 -2.7632751 -3.893158 -2.7632751 -7.6430664c0 -4.285614 1.0362396 -9.106934 3.1086884 -14.463928c2.072464 -5.3694763 4.738312 -9.929169 7.9975586 -13.679077c3.2769623 -3.7499084 6.5450745 -5.6248474 9.804321 -5.6248474c1.523346 0 2.6658478 0.42355347 3.427536 1.2707214c0.761673 0.84716797 1.1425018 1.9933167 1.1425018 3.438446c0 1.9933167 -0.6553955 4.254486 -1.9661713 6.783478c1.9661713 0.90945435 3.8703613 1.3641663 5.7125397 1.3641663c2.5153046 0 4.5877686 -0.7225647 6.2173767 -2.1677246c1.6296234 -1.4576111 2.4444427 -3.5256653 2.4444427 -6.2041626c0 -3.0646973 -1.3904877 -5.587494 -4.1714935 -7.568329c-2.7632751 -1.9933167 -7.413025 -2.9899597 -13.949234 -2.9899597c-10.132004 0 -18.492706 2.3172302 -25.082054 6.95166c-6.5716324 4.6219788 -11.354233 10.109802 -14.347794 16.46347c-2.9935532 6.3536377 -4.490326 12.1716 -4.490326 17.453888c0 6.2789 2.2318802 10.894653 6.695633 13.847229c4.4637604 2.9401245 10.725426 4.410187 18.78498 4.410187c14.128952 0 26.45192 -4.443695 36.968872 -13.331085l0 0l-3.8282776 12.639679l23.487854 0l11.106247 -36.851257c1.310791 -3.1394653 3.0555573 -5.6809387 5.2342987 -7.6243896c2.1787262 -1.9559326 4.6763153 -2.933899 7.4927216 -2.933899c3.9146423 0 5.8719635 1.949707 5.8719635 5.8490906c0 1.6071167 -0.3808136 3.712555 -1.1425018 6.316284c-0.76168823 2.6037598 -1.5765076 5.2449036 -2.4444427 7.923401c-0.21255493 0.53570557 -0.61994934 1.7628174 -1.2222137 3.6813965c-0.6022644 1.9060974 -1.177948 3.8744812 -1.7270508 5.9051514c-0.5314026 2.0307007 -0.7971039 3.8495789 -0.7971039 5.4566956c0 3.6751404 1.5499115 6.758545 4.6497498 9.250183c3.0998383 2.4791565 7.970993 3.71875 14.613495 3.71875c5.6505585 0 11.115112 -1.4326782 16.393677 -4.298065c2.378662 -1.296814 4.631424 -3.1564941 6.7582703 -5.579071l0 0c1.1662445 2.1464539 2.8610535 3.9127197 5.0844727 5.298767c4.6763 2.902771 11.0442505 4.354126 19.10379 4.354126c6.642517 0 12.789032 -1.4140015 18.439575 -4.2420044c5.668274 -2.840454 10.291443 -6.864441 13.869537 -12.07196c3.5957947 -5.2075195 5.827667 -11.293304 6.6956177 -18.257446c4.8863525 -0.5592041 9.465912 -1.4379272 13.7387085 -2.6361084l0 0l-4.9117737 16.184387c-0.86795044 3.0646973 -1.3019104 5.5563354 -1.3019104 7.474884c0 4.5845947 1.6030579 8.029297 4.8091736 10.334045c3.2060852 2.2922974 7.4218445 3.438446 12.647308 3.438446c6.199646 0 12.452454 -1.4700623 18.758392 -4.410187c2.9412537 -1.373291 5.6334534 -3.3220215 8.076538 -5.846161l0 0c1.0317688 2.3557434 2.5858765 4.285797 4.6623535 5.7901c4.144928 2.9775085 9.31723 4.4662476 15.516876 4.4662476c5.3316956 0 9.928314 -0.9717407 13.789825 -2.9151917c3.8792114 -1.9559326 7.395294 -4.5036316 10.548279 -7.643097c0.5314026 3.438446 2.1875916 6.060913 4.968567 7.86734c2.7810059 1.7939758 6.4565125 2.6909485 11.02655 2.6909485c5.987091 0 11.938782 -1.4700623 17.855042 -4.410187c1.2829895 -0.6383667 2.521698 -1.401123 3.716095 -2.288208l0 0l-1.8099365 6.0069885l23.487885 0l13.072418 -43.634735c2.497589 -1.6070862 4.534607 -2.734558 6.111084 -3.3823853c1.5765076 -0.64782715 3.5072327 -0.9717407 5.792267 -0.9717407c0.86795044 0 1.4613342 0.23046875 1.7801819 0.69143677c0.33654785 0.4609375 0.6731262 1.1835327 1.0096741 2.1677246c0.42510986 1.5323486 1.0450745 2.7033997 1.8598938 3.5131836c0.81481934 0.79733276 2.4267273 1.1959839 4.835724 1.1959839c3.7020874 0 6.5805054 -0.84091187 8.635254 -2.522766c2.0724487 -1.6818542 3.1087036 -3.6315613 3.1087036 -5.849121c0 -2.379486 -1.0097046 -4.410187 -3.0289917 -6.092041c-2.001587 -1.6818542 -4.7471924 -2.522766 -8.236694 -2.522766c-3.4895325 0 -6.731079 0.6166687 -9.724609 1.8500366c-2.97583 1.2208862 -6.3148193 2.9775085 -10.016876 5.269806l2.1255798 -7.1198425l-23.514435 0l-11.114807 36.888947l0 0c-1.3092346 3.196869 -3.0754395 5.7880554 -5.298584 7.7735596c-2.2318726 1.9933167 -4.871155 2.9899597 -7.9178467 2.9899597c-4.463745 0 -6.695648 -1.6444702 -6.695648 -4.933441c0 -1.3081055 0.22143555 -2.5352173 0.6642761 -3.681366l11.743927 -39.03766l-23.514435 0l-1.7801819 6.092041l0 -0.80355835c0 -1.769043 -1.089386 -3.1893005 -3.2681274 -4.260681c-2.1787415 -1.0714111 -5.4999695 -1.6071167 -9.963745 -1.6071167c-8.821228 0 -16.411377 2.1677246 -22.770447 6.503174c-6.3591003 4.3229675 -11.150543 9.605225 -14.374359 15.846771c-3.2061157 6.2290955 -4.8091736 12.177856 -4.8091736 17.846313c0 0.32766724 0.005493164 0.6508789 0.016448975 0.9696045l0 0c-1.0291748 1.3552551 -2.2874146 2.5457458 -3.7746887 3.5714111c-2.710144 1.8687134 -5.650543 2.80307 -8.821228 2.80307c-2.391327 0 -4.100647 -0.32391357 -5.1280212 -0.9717102c-1.0273743 -0.66030884 -1.5410461 -1.7503967 -1.5410461 -3.2702942c0 -1.3081055 0.21255493 -2.5352173 0.6376648 -3.681366l18.784973 -62.004288l-24.17868 2.298523l-10.939362 36.045334l0 0c-0.21600342 0.063690186 -0.43295288 0.12677002 -0.6508484 0.1892395c-4.6763306 1.3330383 -8.812378 1.9995422 -12.408173 1.9995422c-0.86795044 0 -1.4613647 -0.037384033 -1.7802124 -0.11212158l0 -0.11212158c0 -12.246368 -6.9701843 -18.369568 -20.910553 -18.369568c-10.220581 0 -18.705261 2.3172302 -25.45404 6.95166c-6.7487793 4.6219788 -11.646515 10.109802 -14.693207 16.46347c-3.046692 6.3536377 -4.5700226 12.134247 -4.5700226 17.341736c0 0.24313354 0.0034942627 0.48373413 0.010498047 0.72180176l0 0c-1.2055054 1.6873474 -2.4110107 3.0351868 -3.6165466 4.043457c-1.9484558 1.6444702 -4.552307 2.4667053 -7.811569 2.4667053c-2.409027 0 -4.100662 -0.41732788 -5.074875 -1.2520447c-0.97424316 -0.84713745 -1.4613495 -2.0368958 -1.4613495 -3.5692444c0 -1.3081055 0.3542633 -3.0896301 1.0628052 -5.3445435c0.70854187 -2.2549438 1.4967957 -4.5721436 2.3647308 -6.95166c1.4170532 -3.899414 2.506424 -7.207062 3.268097 -9.922943c0.76168823 -2.7158813 1.1425171 -5.1825867 1.1425171 -7.4001465c0 -4.3728027 -1.6384888 -7.630615 -4.915451 -9.7734375c-3.259262 -2.1427917 -7.661026 -3.214203 -13.2052765 -3.214203c-7.2978973 0 -13.6658325 2.1428223 -19.103806 6.428406l8.821228 -28.927841zm-136.15448 -6.316284c-6.961334 0 -13.223 0.9219055 -18.784973 2.7657013c-5.544277 1.8313599 -9.892906 4.335449 -13.04586 7.512268c-3.1529808 3.1768494 -4.729454 6.7585754 -4.729454 10.745178c0 4.048889 1.4967651 7.780121 4.490326 11.193665c2.993557 3.401062 7.421894 7.474884 13.284988 12.221466c5.668251 4.597046 9.910599 8.502686 12.72702 11.716888c2.834137 3.214203 4.25119 6.621521 4.25119 10.221924c0 4.123657 -1.8776169 7.549652 -5.6328354 10.277985c-3.7552109 2.7158813 -8.511238 4.073822 -14.268074 4.073822c-4.6763153 0 -8.43153 -0.99664307 -11.265671 -2.9899597c-2.8341408 -1.9933167 -4.251194 -4.63443 -4.251194 -7.923401c0 -3.6004028 1.6827545 -6.453308 5.048294 -8.558746c3.383236 -2.1054382 7.9089775 -3.158142 13.577259 -3.158142c-0.65540314 -2.3670654 -2.293892 -4.217102 -4.915447 -5.55011c-2.603859 -1.3454895 -5.8099785 -2.018219 -9.618332 -2.018219c-4.1449165 0 -7.935547 0.80352783 -11.371948 2.4106445c-3.4186535 1.6070862 -6.1376667 3.787262 -8.156984 6.5405273c-2.0016212 2.7532654 -3.002407 5.811737 -3.002407 9.175446c0 3.9866028 1.4082088 7.4935913 4.2246265 10.520905c2.834114 3.0148926 6.8638763 5.3694763 12.08934 7.0637817c5.225437 1.6818542 11.265671 2.5227966 18.120724 2.5227966c8.165829 0 15.596577 -1.1461487 22.29221 -3.438446c6.695633 -2.304779 11.974213 -5.4442444 15.835709 -9.418396c3.861496 -3.9866028 5.7922516 -8.427948 5.7922516 -13.324005c0 -3.6004028 -0.9565201 -6.95166 -2.8695602 -10.053741c-1.8953094 -3.1020813 -4.1803284 -5.8366394 -6.855049 -8.203705c-2.6569977 -2.379486 -6.164238 -5.2137146 -10.521713 -8.502686c-5.3317184 -4.1361084 -9.255226 -7.524719 -11.7705 -10.165863c-2.4975739 -2.6411133 -3.7463684 -5.4878235 -3.7463684 -8.54007c0 -3.3761597 1.3904877 -6.1543274 4.1714935 -8.334503c2.7809982 -2.180191 6.3502197 -3.270279 10.707695 -3.270279c3.578102 0 6.403366 0.72880554 8.475822 2.1864166c2.072464 1.4576111 3.1086884 3.407318 3.1086884 5.8490906c0 1.9185791 -0.6022568 3.7561646 -1.8067551 5.5127563c-1.1868057 1.7565918 -2.8164215 3.1768188 -4.888878 4.260681c2.4975739 2.3670654 5.818825 3.5505676 9.9637375 3.5505676c3.7020798 0 6.6956406 -0.99664307 8.9806595 -2.9899292c2.2850113 -1.9933167 3.4275208 -4.5970764 3.4275208 -7.8112793c0 -4.896057 -2.6392746 -8.795471 -7.9178543 -11.698227c-5.278572 -2.915207 -12.328468 -4.3728027 -21.149696 -4.3728027zm516.3367 89.43715l-1.9396362 6.783478c-0.99194336 3.1394653 -2.355896 5.4130554 -4.091797 6.8208313c-1.7359009 1.420227 -3.586914 2.1303406 -5.5531006 2.1303406c-1.7359009 0 -3.2592163 -0.4048767 -4.5700073 -1.2146606c-1.310791 -0.79730225 -1.9661865 -1.6569214 -1.9661865 -2.578827c0 -2.902771 1.576477 -5.2760315 4.729431 -7.1198425c3.1707153 -1.8313599 7.6344604 -3.438446 13.391296 -4.8213196zm-35.243713 -83.120865l-24.17865 2.298523l-17.456482 57.519363c-0.86798096 3.0646973 -1.3019409 5.5563354 -1.3019409 7.474884c0 4.5845947 1.6030884 8.029297 4.809143 10.334045c3.2061157 2.2922974 7.421936 3.438446 12.647339 3.438446c6.199646 0 12.452454 -1.4700623 18.758423 -4.410187c2.8305664 -1.3216248 5.430481 -3.1762085 7.7996826 -5.5637207l0 0c0.6711426 2.739746 2.1315308 4.9182434 4.3812256 6.5354614c3.2061157 2.2922974 7.421875 3.438446 12.647339 3.438446c7.7229614 0 14.3654785 -2.2175293 19.92743 -6.652649l0 0l-1.6473389 5.0455627c-6.4121704 1.3703918 -11.522461 2.6660461 -15.330872 3.8869324c-3.8083496 1.2333679 -6.917053 2.9214478 -9.32605 5.0642395c-2.3912964 2.1428223 -3.586914 4.896057 -3.586914 8.259766c0 3.6004028 1.9307251 6.56546 5.7922363 8.895142c3.8792114 2.3421326 8.369568 3.5131836 13.470947 3.5131836c6.642517 0 12.709351 -1.420227 18.20044 -4.260681c5.50885 -2.828003 9.352661 -7.910919 11.531372 -15.248779l19.90094 -66.60135l-23.673828 0l-11.079712 36.851257c-1.310791 3.1394348 -3.055542 5.6123962 -5.234253 7.4188232c-2.178772 1.7939758 -4.791504 2.6909485 -7.838196 2.6909485c-3.2592163 0 -4.888855 -1.6818237 -4.888855 -5.045532c0 -0.9966736 0.15942383 -1.9559326 0.47827148 -2.8778381l11.770508 -39.03766l-23.514465 0l-11.106201 36.851257l-0.0119018555 0c-1.1868286 2.9899597 -3.144104 5.4255066 -5.8719482 7.3067017c-2.710144 1.8687134 -5.6505737 2.80307 -8.821289 2.80307c-2.3912964 0 -4.100586 -0.32391357 -5.1279907 -0.9717102c-1.0273438 -0.66030884 -1.5410156 -1.7503967 -1.5410156 -3.2702942c0 -1.3081055 0.21252441 -2.5352173 0.6376343 -3.681366l18.784973 -62.004288z" fill-rule="evenodd"/><path fill="#a7042e" d="m758.24854 255.69214l-9.458923 31.22638c-5.4556885 -1.6070862 -12.098206 -2.94635 -19.92749 -4.017761c4.782593 -6.8021545 9.706909 -12.595184 14.772888 -17.37912c5.06604 -4.7839355 9.937195 -8.060455 14.613525 -9.829498zm79.98071 -8.147644c-8.90979 0 -17.828491 1.4389191 -26.755981 4.316757c-8.92749 2.8653717 -16.251953 6.61528 -21.973389 11.24971c-5.7036743 4.6219788 -8.555542 9.381012 -8.555542 14.277069c0 3.9866028 1.4348145 6.8395386 4.3043823 8.558746c2.887268 1.7192383 7.2713013 2.5788574 13.1521 2.5788574c0 -0.14950562 -0.38079834 -0.778656 -1.1425171 -1.8874207c-0.7616577 -1.1087646 -1.142456 -3.077179 -1.142456 -5.905182c0 -8.807922 3.7286377 -15.659912 11.185913 -20.55597c7.4573364 -4.896057 17.828491 -7.3440857 31.113464 -7.3440857c6.731079 0 11.779358 1.4576111 15.144897 4.3728333c3.3832397 2.9027405 5.074829 6.6464233 5.074829 11.231018c0 4.1361084 -1.2487793 8.346985 -3.746338 12.632568c-2.4975586 4.285614 -5.95166 7.8860474 -10.362305 10.801239c-4.4105835 2.9027405 -9.228638 4.509857 -14.454041 4.8213196l11.584473 -38.346222l-24.1521 2.2798462l-22.185913 73.029755l23.487854 0l9.963745 -32.721375l0.82366943 0c9.3526 0 17.615906 -1.5074463 24.789795 -4.5223083c7.1915894 -3.0273438 12.71814 -6.9143066 16.57965 -11.660858c1.4995728 -1.8432312 2.7079468 -3.7043152 3.625183 -5.5832825l0 0c0.37719727 3.0679321 1.7772217 5.3276978 4.200012 6.7792664c2.887268 1.7192383 7.2713013 2.5788574 13.1521 2.5788574c0 -0.14950562 -0.38079834 -0.778656 -1.1425171 -1.8874207c-0.7616577 -1.1087646 -1.142456 -3.077179 -1.142456 -5.905182c0 -6.1293945 1.9838867 -11.318237 5.95166 -15.566467c3.9854736 -4.24823 9.618347 -7.406372 16.898499 -9.474426l0 0l-23.647278 77.963196l23.487854 0l25.958862 -85.8866c-2.8341064 -0.14949036 -5.0128784 -0.22424316 -6.536194 -0.22424316c-8.909851 0 -17.828491 1.4389191 -26.755981 4.316757c-8.92749 2.8653717 -16.251953 6.61528 -21.973389 11.24971c-2.765686 2.2411804 -4.86084 4.514618 -6.2854614 6.8202515l0 0c-0.049743652 -4.035675 -1.4397583 -7.7230835 -4.170105 -11.062256c-2.7633057 -3.4135284 -7.0322266 -6.1543274 -12.806763 -8.222382c-5.756836 -2.0680542 -12.939575 -3.1020813 -21.548218 -3.1020813zm-67.25372 0c-9.033752 0 -18.528137 3.158142 -28.483032 9.474426c-9.954895 6.316284 -19.396057 14.445251 -28.323547 24.386871c-3.3655396 -0.22424316 -6.190796 -0.33639526 -8.47583 -0.33639526c-6.217407 0 -11.88562 0.635376 -17.004822 1.9061279c-5.1014404 1.2582703 -9.095764 2.9588013 -11.983032 5.101593c-2.887268 2.1428223 -4.3309326 4.516083 -4.3309326 7.1198425c0 2.1428223 0.9211426 3.7872925 2.7633057 4.933441c1.8599243 1.1461487 4.3131714 1.7192383 7.3598633 1.7192383c2.621582 0 4.800293 -0.39868164 6.536255 -1.1959839c1.7359009 -0.80978394 2.6038208 -1.9060974 2.6038208 -3.288971c0 -0.8346863 -0.24798584 -1.632019 -0.7439575 -2.3919678c-0.47827148 -0.7723999 -0.93878174 -1.1585999 -1.3816528 -1.1585999c0.9920044 -1.9185486 3.0644531 -3.3325806 6.217407 -4.2420044c3.152954 -0.9219055 7.4484863 -1.4949951 12.886414 -1.7192383l0 0c-7.173889 8.720734 -12.9661255 17.410278 -17.37677 26.068726c-4.4105835 8.645966 -6.615906 15.529083 -6.615906 20.649384c0 3.675171 1.1159668 6.3910522 3.3478394 8.147644c2.2318726 1.7690735 4.871155 2.8778381 7.9178467 3.3263245c3.046692 0.46096802 6.5805054 0.69143677 10.601379 0.69143677c-1.5233154 -1.3703918 -2.2849731 -3.5131836 -2.2849731 -6.428406c0 -5.8927307 1.9838867 -13.753815 5.95166 -23.583313c3.9854736 -9.841949 9.078064 -19.465881 15.27771 -28.871796c3.8084106 0.22424316 7.3953247 0.64160156 10.760864 1.2520447c3.3832397 0.61047363 7.085327 1.5697327 11.106262 2.8778381l-12.567627 41.672577l23.514465 0l25.640015 -84.50374c-3.3832397 -1.0713959 -7.687561 -1.6071014 -12.913025 -1.6071014z" fill-rule="evenodd"/><path fill="#a7042e" d="m524.7966 421.5975c2.7278442 0 4.8534546 1.0714111 6.376831 3.214203c1.5233154 2.1428223 2.2849731 4.746582 2.2849731 7.8112793c0 4.0489197 -0.87677 8.278442 -2.6304321 12.688629c-1.7359009 4.3977356 -4.0740356 8.0729065 -7.0144653 11.025482c-2.9226685 2.9401245 -6.0756226 4.410187 -9.458923 4.410187c-5.7568054 0 -8.635223 -1.7628174 -8.635223 -5.2884827c0 -0.8347168 0.15942383 -1.7130127 0.47827148 -2.6348877l8.980621 -29.170807c0.76171875 -0.6852112 2.1433105 -1.1959839 4.1449585 -1.5323486c2.019287 -0.34884644 3.84375 -0.5232544 5.4733887 -0.5232544zm-225.42023 -1.8500366c2.1610413 0 3.675537 0.47964478 4.5434875 1.4389343c0.88565063 0.95925903 1.4347534 2.7033997 1.6473389 5.232422c-3.3655396 0.99664307 -5.0483093 3.0646973 -5.0483093 6.2041626c0 2.7532349 1.4613647 4.3603516 4.3840637 4.8213196c-0.86795044 4.435089 -2.2850342 8.471527 -4.2512207 12.109314c-1.9484558 3.6377869 -4.23349 6.5093994 -6.8550415 8.614838c-2.6038513 2.1054382 -5.207733 3.158142 -7.8115845 3.158142c-3.152954 0 -5.3316956 -0.6291504 -6.536194 -1.8874207c-1.2045288 -1.2707214 -1.8067627 -3.7436523 -1.8067627 -7.4188232c0 -3.899414 1.0362244 -8.415497 3.108673 -13.548248c2.0724792 -5.132782 4.7914734 -9.536743 8.156982 -13.211884c3.3832397 -3.675171 6.872772 -5.5127563 10.468567 -5.5127563zm71.66495 0c2.1610107 0 3.6755066 0.47964478 4.543457 1.4389343c0.88568115 0.95925903 1.4347839 2.7033997 1.6473389 5.232422c-3.3655396 0.99664307 -5.048279 3.0646973 -5.048279 6.2041626c0 2.7532349 1.4613342 4.3603516 4.384033 4.8213196c-0.86795044 4.435089 -2.2850037 8.471527 -4.25119 12.109314c-1.9484558 3.6377869 -4.23349 6.5093994 -6.8550415 8.614838c-2.6038818 2.1054382 -5.207733 3.158142 -7.8115845 3.158142c-3.1529846 0 -5.3316956 -0.6291504 -6.5362244 -1.8874207c-1.2044983 -1.2707214 -1.8067627 -3.7436523 -1.8067627 -7.4188232c0 -3.899414 1.0362549 -8.415497 3.1087036 -13.548248c2.0724487 -5.132782 4.791443 -9.536743 8.156982 -13.211884c3.3832397 -3.675171 6.872772 -5.5127563 10.468567 -5.5127563zm-136.48416 -34.664825c-13.16098 0 -24.019257 3.3138428 -32.574783 9.94162c-8.537811 6.615265 -14.737473 14.557343 -18.598984 23.826233c-3.861496 9.256409 -5.792267 17.902374 -5.792267 25.937897c0 10.103577 2.878418 17.33554 8.635254 21.695892c5.774521 4.3603516 14.808319 6.5405273 27.101364 6.5405273c5.4380035 0 11.20369 -0.741272 17.297058 -2.2237854c6.1110992 -1.4949646 11.832489 -3.8495789 17.164215 -7.0637817c2.3405151 -1.4109802 4.4284363 -2.9767761 6.263733 -4.697418l0 0c1.0189972 3.5312805 3.1164398 6.2868347 6.292343 8.266693c4.6763 2.9027405 11.0442505 4.354126 19.10382 4.354126c6.6424866 0 12.789001 -1.4140015 18.439545 -4.2420044c5.668274 -2.840454 10.291443 -6.864441 13.869537 -12.07196c3.5957947 -5.2075195 5.8276978 -11.293335 6.6956177 -18.257446c4.1194763 -0.47143555 8.020874 -1.1699829 11.704254 -2.0955505l0 0c-0.20465088 0.38989258 -0.4020691 0.7832031 -0.59228516 1.1798706c-3.046692 6.353668 -4.570038 12.134247 -4.570038 17.341766c0 6.2789307 2.3381653 10.875977 7.0144653 13.791199c4.6763306 2.9027405 11.0442505 4.354126 19.10382 4.354126c6.6424866 0 12.789032 -1.4140015 18.439575 -4.2420044c5.6682434 -2.840454 10.291443 -6.864441 13.869537 -12.07196c3.5957947 -5.2075195 5.827667 -11.293335 6.6956177 -18.257446c4.8968506 -0.5604248 9.485626 -1.4417114 13.766327 -2.6438599l0 0l-11.130188 36.748077l23.487854 0l8.502411 -28.367218c2.4975586 -1.4451599 4.6940002 -2.510315 6.5893555 -3.1955261c1.9130249 -0.69766235 3.7374878 -1.0464783 5.4733887 -1.0464783c3.932373 0 5.8985596 1.8375549 5.8985596 5.512726c0 1.5323486 -0.22143555 2.94635 -0.6642761 4.2420044l-1.3019104 4.484955c-0.6553955 2.1427917 -0.98309326 4.1298523 -0.98309326 5.961212c0 4.210846 1.7359009 7.4499817 5.2077026 9.717377c3.4895325 2.2549438 8.608673 3.3823853 15.357452 3.3823853c9.150391 0 16.750336 -3.3599854 22.799835 -10.079987l0 0c0.901062 2.5090637 2.605835 4.5858765 5.1143494 6.2304077c3.9146423 2.5663757 9.574036 3.8495789 16.97821 3.8495789c10.663422 0 19.342926 -2.1428223 26.038605 -6.428406c6.6956177 -4.285614 11.487061 -9.430817 14.374329 -15.435669c2.887268 -6.0173035 4.3309326 -11.667053 4.3309326 -16.94934c0 -13.081055 -6.4210815 -19.621613 -19.263245 -19.621613c-1.9661865 0 -3.932373 0.21179199 -5.8985596 0.635376c-1.9484253 0.4111328 -4.446045 1.2707214 -7.492737 2.5788574l7.838135 -25.844482l-24.17865 2.298523l-17.456482 57.51935c-0.0065307617 0.01776123 -0.013061523 0.03555298 -0.01953125 0.05331421l0 0c-1.9560547 3.4238586 -3.9120789 5.9537964 -5.8681335 7.5897827c-1.9484558 1.6444702 -4.5611877 2.4667053 -7.838135 2.4667053c-4.23349 0 -6.3502197 -1.4140015 -6.3502197 -4.2420044c0 -1.0713806 0.27453613 -2.298523 0.82366943 -3.681366l1.7801819 -5.7369995c0.44284058 -1.3081055 0.6642456 -2.7657166 0.6642456 -4.3728027c0 -3.899414 -1.523346 -7.113617 -4.570038 -9.642639c-3.046692 -2.5289917 -7.510437 -3.793518 -13.391266 -3.793518c-1.9661865 0 -3.7640686 0.1557312 -5.3937073 0.4671936l32.65451 -15.958893l-16.154541 0l-31.511993 17.453888l12.248749 -40.420532l-24.17868 2.298523l-10.915161 36.038208l0 0c-0.22399902 0.06613159 -0.44900513 0.1315918 -0.6750488 0.19638062c-4.6763306 1.3330078 -8.812378 1.9995422 -12.408173 1.9995422c-0.86798096 0 -1.4613647 -0.037384033 -1.7802124 -0.11212158l0 -0.11212158c0 -12.246399 -6.9701843 -18.369568 -20.910553 -18.369568c-10.220581 0 -18.705261 2.3171997 -25.45404 6.95166c-4.1044006 2.8109436 -7.52417 5.9421387 -10.259277 9.393585l0 0c-0.28259277 0.08407593 -0.566803 0.16708374 -0.85269165 0.24902344c-4.6763 1.3330078 -8.812378 1.9995422 -12.408173 1.9995422c-0.86795044 0 -1.4613647 -0.037384033 -1.7801819 -0.11212158l0 -0.11212158c0 -12.246399 -6.970215 -18.369568 -20.910583 -18.369568c-10.220581 0 -18.705261 2.3171997 -25.45404 6.95166c-6.7487793 4.6219482 -11.646515 10.109772 -14.693176 16.46344c-2.92424 6.0982666 -4.445114 11.66861 -4.5626526 16.71103l0 0c-3.3006744 2.5520935 -7.063385 4.5999146 -11.288116 6.1434937c-5.4380035 1.980835 -11.363098 2.9712524 -17.775314 2.9712524c-7.404175 0 -12.523331 -1.526123 -15.357452 -4.578369c-2.8164062 -3.0646973 -4.2246246 -7.5060425 -4.2246246 -13.324005c0 -7.8112793 1.6030426 -15.921539 4.8091736 -24.33078c3.2061157 -8.421753 7.4218903 -15.404541 12.647308 -20.948425c5.2254333 -5.5563354 10.725418 -8.334503 16.499954 -8.334503c3.471817 0 5.9959564 0.65405273 7.5724335 1.9621582c1.576477 1.2956543 2.3647308 2.9775085 2.3647308 5.0455627c0 2.2175598 -0.761673 4.3603516 -2.285019 6.428406c-1.5233307 2.0680542 -3.2592316 3.4447021 -5.207718 4.129883c2.285019 1.9933167 5.384857 2.9899597 9.2994995 2.9899597c3.914627 0 6.793045 -0.9405823 8.635239 -2.8217773c1.8598938 -1.8811951 2.789856 -4.4662476 2.789856 -7.755188c0 -5.1950684 -2.5064392 -9.057098 -7.5193024 -11.586121c-4.995163 -2.5289917 -11.575668 -3.7934875 -19.7415 -3.7934875z" fill-rule="evenodd"/><path fill="#a7042e" d="m599.7487 419.74747c2.1610718 0 3.675537 0.47964478 4.543518 1.4389343c0.8856201 0.95925903 1.4347534 2.7033997 1.6473389 5.232422c-3.3655396 0.99664307 -5.04834 3.0646973 -5.04834 6.2041626c0 2.7532349 1.4613647 4.3603516 4.384094 4.8213196c-0.86798096 4.435089 -2.2850342 8.471527 -4.2512207 12.109314c-1.9484863 3.6377869 -4.2335205 6.5093994 -6.8550415 8.614838c-2.6038818 2.1054382 -5.2077026 3.158142 -7.8115845 3.158142c-3.152954 0 -5.331726 -0.6291504 -6.536194 -1.8874207c-1.2045288 -1.2707214 -1.8067627 -3.7436523 -1.8067627 -7.4188232c0 -3.899414 1.0361938 -8.415497 3.1086426 -13.548248c2.0725098 -5.132782 4.791504 -9.536743 8.156982 -13.211884c3.3833008 -3.675171 6.8728027 -5.5127563 10.468567 -5.5127563zm71.66498 0c2.1610107 0 3.675476 0.47964478 4.543457 1.4389343c0.88568115 0.95925903 1.4347534 2.7033997 1.6473389 5.232422c-3.3655396 0.99664307 -5.048279 3.0646973 -5.048279 6.2041626c0 2.7532349 1.4613037 4.3603516 4.384033 4.8213196c-0.86798096 4.435089 -2.2850342 8.471527 -4.2512207 12.109314c-1.9484253 3.6377869 -4.2334595 6.5093994 -6.8550415 8.614838c-2.6038818 2.1054382 -5.2077026 3.158142 -7.8115845 3.158142c-3.152954 0 -5.331665 -0.6291504 -6.536194 -1.8874207c-1.2045288 -1.2707214 -1.8067627 -3.7436523 -1.8067627 -7.4188232c0 -3.899414 1.0362549 -8.415497 3.1087036 -13.548248c2.0724487 -5.132782 4.791443 -9.536743 8.156982 -13.211884c3.3832397 -3.675171 6.8727417 -5.5127563 10.468567 -5.5127563zm69.53931 -28.927856l-24.17865 2.298523l-10.915161 36.038208l0 0c-0.22399902 0.06613159 -0.44903564 0.1315918 -0.6750488 0.19638062c-4.6763306 1.3330078 -8.812378 1.9995422 -12.408203 1.9995422c-0.8679199 0 -1.4613647 -0.037384033 -1.7802124 -0.11212158l0 -0.11212158c0 -12.246399 -6.970154 -18.369568 -20.910522 -18.369568c-10.220581 0 -18.705261 2.3171997 -25.45404 6.95166c-4.104431 2.8109436 -7.52417 5.9421387 -10.259277 9.393585l0 0c-0.28259277 0.08407593 -0.5668335 0.16708374 -0.85272217 0.24902344c-4.6762695 1.3330078 -8.812378 1.9995422 -12.408142 1.9995422c-0.86798096 0 -1.4613647 -0.037384033 -1.7802124 -0.11212158l0 -0.11212158c0 -12.246399 -6.970215 -18.369568 -20.910583 -18.369568c-10.220581 0 -18.705261 2.3171997 -25.45404 6.95166c-6.7487793 4.6219482 -11.646484 10.109772 -14.693176 16.46344c-3.046692 6.353668 -4.5700073 12.134247 -4.5700073 17.341766c0 6.2789307 2.3381348 10.875977 7.0144653 13.791199c4.6762695 2.9027405 11.0442505 4.354126 19.10382 4.354126c6.642456 0 12.789001 -1.4140015 18.439514 -4.2420044c5.668274 -2.840454 10.291443 -6.864441 13.869568 -12.07196c3.5957642 -5.2075195 5.8276978 -11.293335 6.6956177 -18.257446c4.119446 -0.47143555 8.020874 -1.1699829 11.704224 -2.0955505l0 0c-0.20465088 0.38989258 -0.40203857 0.7832031 -0.59228516 1.1798706c-3.046692 6.353668 -4.5700073 12.134247 -4.5700073 17.341766c0 6.2789307 2.3381348 10.875977 7.0144653 13.791199c4.6763306 2.9027405 11.0442505 4.354126 19.10382 4.354126c6.642517 0 12.789001 -1.4140015 18.439575 -4.2420044c5.668274 -2.840454 10.291443 -6.864441 13.869507 -12.07196c3.5958252 -5.2075195 5.8276978 -11.293335 6.6956177 -18.257446c4.8969116 -0.5604248 9.485657 -1.4417114 13.766357 -2.6438599l0 0l-11.130188 36.748077l23.487854 0l8.50238 -28.367218c2.4975586 -1.4451599 4.694031 -2.510315 6.5893555 -3.1955261c1.9130249 -0.69766235 3.7375488 -1.0464783 5.4733887 -1.0464783c3.932373 0 5.8985596 1.8375549 5.8985596 5.512726c0 1.5323486 -0.22137451 2.94635 -0.6642456 4.2420044l-1.3019409 4.484955c-0.6553955 2.1427917 -0.98309326 4.1298523 -0.98309326 5.961212c0 4.210846 1.7359009 7.4499817 5.2077026 9.717377c3.489563 2.2549438 8.608704 3.3823853 15.357483 3.3823853c1.6296387 0 3.6135254 -0.46096802 5.95166 -1.382843c2.3381958 -0.9219055 4.4017944 -2.2611694 6.190796 -4.017761c1.8067627 -1.7566223 2.8252563 -3.899414 3.055542 -6.428406c-0.1239624 0 -0.5136719 0.11831665 -1.1690674 0.3550415c-0.6376953 0.22424316 -2.1610107 0.33636475 -4.5700073 0.33636475c-4.2335205 0 -6.3502197 -1.4140015 -6.3502197 -4.2420044c0 -1.0713806 0.27453613 -2.298523 0.82366943 -3.681366l1.7801514 -5.7369995c0.4428711 -1.3081055 0.6642456 -2.7657166 0.6642456 -4.3728027c0 -3.899414 -1.5233154 -7.113617 -4.5700073 -9.642639c-3.046692 -2.5289917 -7.510437 -3.793518 -13.391296 -3.793518c-1.9661865 0 -3.7640991 0.1557312 -5.3936768 0.4671936l32.65448 -15.958893l-16.154541 0l-31.511963 17.453888l12.248718 -40.420532z" fill-rule="evenodd"/><path stroke="#ffffff" stroke-width="1.0" stroke-linejoin="round" stroke-linecap="butt" d="m414.46448 282.78864c2.2850037 0 3.9677734 0.47964478 5.048279 1.4389343c1.0982361 0.95925903 1.6473389 1.9372253 1.6473389 2.933899l-7.838135 25.937897c-0.99194336 3.1394348 -2.8252869 5.6123962 -5.5 7.4188232c-2.6569824 1.7939758 -5.3405457 2.6909485 -8.05069 2.6909485c-2.2850037 0 -4.22464 -0.53567505 -5.818817 -1.6070862c-1.576477 -1.0714111 -2.364746 -3.5194397 -2.364746 -7.3440857c0 -3.8371277 0.98309326 -8.259766 2.9492798 -13.267944c1.9661865 -5.0081787 4.6851807 -9.293793 8.156982 -12.856842c3.4895325 -3.5630188 7.413025 -5.3445435 11.770508 -5.3445435zm-116.394104 -0.5793152c2.1610413 0 3.6755066 0.47964478 4.543457 1.4389343c0.88568115 0.95928955 1.4347839 2.7034302 1.6473389 5.232422c-3.365509 0.99664307 -5.048279 3.0647278 -5.048279 6.2041626c0 2.7532654 1.4613342 4.3603516 4.384033 4.8213196c-0.86795044 4.4351196 -2.2850037 8.471558 -4.25119 12.1093445c-1.9484558 3.6377563 -4.23349 6.509369 -6.8550415 8.614807c-2.6038818 2.1054382 -5.207733 3.158142 -7.8115845 3.158142c-3.152954 0 -5.3316956 -0.6291199 -6.5362244 -1.8874207c-1.2044983 -1.2707214 -1.8067322 -3.7436829 -1.8067322 -7.4188232c0 -3.899414 1.0362244 -8.415497 3.108673 -13.548248c2.0724487 -5.132782 4.791443 -9.536743 8.156982 -13.211884c3.3832397 -3.675171 6.872772 -5.5127563 10.468567 -5.5127563zm-84.56476 -28.927841l-24.17868 2.298523l-17.42134 57.519363l-0.04296875 0c-4.995163 3.9118652 -9.591766 6.827057 -13.789825 8.745605c-4.1803284 1.9060974 -9.210907 2.8591614 -15.091736 2.8591614c-4.144928 0 -7.1473236 -0.6665039 -9.007233 -1.9995422c-1.8421631 -1.3454895 -2.7632751 -3.893158 -2.7632751 -7.6430664c0 -4.285614 1.0362396 -9.106934 3.1086884 -14.463928c2.072464 -5.3694763 4.738312 -9.929169 7.9975586 -13.679077c3.2769623 -3.7499084 6.5450745 -5.6248474 9.804321 -5.6248474c1.523346 0 2.6658478 0.42355347 3.427536 1.2707214c0.761673 0.84716797 1.1425018 1.9933167 1.1425018 3.438446c0 1.9933167 -0.6553955 4.254486 -1.9661713 6.783478c1.9661713 0.90945435 3.8703613 1.3641663 5.7125397 1.3641663c2.5153046 0 4.5877686 -0.7225647 6.2173767 -2.1677246c1.6296234 -1.4576111 2.4444427 -3.5256653 2.4444427 -6.2041626c0 -3.0646973 -1.3904877 -5.587494 -4.1714935 -7.568329c-2.7632751 -1.9933167 -7.413025 -2.9899597 -13.949234 -2.9899597c-10.132004 0 -18.492706 2.3172302 -25.082054 6.95166c-6.5716324 4.6219788 -11.354233 10.109802 -14.347794 16.46347c-2.9935532 6.3536377 -4.490326 12.1716 -4.490326 17.453888c0 6.2789 2.2318802 10.894653 6.695633 13.847229c4.4637604 2.9401245 10.725426 4.410187 18.78498 4.410187c14.128952 0 26.45192 -4.443695 36.968872 -13.331085l0 0l-3.8282776 12.639679l23.487854 0l11.106247 -36.851257c1.310791 -3.1394653 3.0555573 -5.6809387 5.2342987 -7.6243896c2.1787262 -1.9559326 4.6763153 -2.933899 7.4927216 -2.933899c3.9146423 0 5.8719635 1.949707 5.8719635 5.8490906c0 1.6071167 -0.3808136 3.712555 -1.1425018 6.316284c-0.76168823 2.6037598 -1.5765076 5.2449036 -2.4444427 7.923401c-0.21255493 0.53570557 -0.61994934 1.7628174 -1.2222137 3.6813965c-0.6022644 1.9060974 -1.177948 3.8744812 -1.7270508 5.9051514c-0.5314026 2.0307007 -0.7971039 3.8495789 -0.7971039 5.4566956c0 3.6751404 1.5499115 6.758545 4.6497498 9.250183c3.0998383 2.4791565 7.970993 3.71875 14.613495 3.71875c5.6505585 0 11.115112 -1.4326782 16.393677 -4.298065c2.378662 -1.296814 4.631424 -3.1564941 6.7582703 -5.579071l0 0c1.1662445 2.1464539 2.8610535 3.9127197 5.0844727 5.298767c4.6763 2.902771 11.0442505 4.354126 19.10379 4.354126c6.642517 0 12.789032 -1.4140015 18.439575 -4.2420044c5.668274 -2.840454 10.291443 -6.864441 13.869537 -12.07196c3.5957947 -5.2075195 5.827667 -11.293304 6.6956177 -18.257446c4.8863525 -0.5592041 9.465912 -1.4379272 13.7387085 -2.6361084l0 0l-4.9117737 16.184387c-0.86795044 3.0646973 -1.3019104 5.5563354 -1.3019104 7.474884c0 4.5845947 1.6030579 8.029297 4.8091736 10.334045c3.2060852 2.2922974 7.4218445 3.438446 12.647308 3.438446c6.199646 0 12.452454 -1.4700623 18.758392 -4.410187c2.9412537 -1.373291 5.6334534 -3.3220215 8.076538 -5.846161l0 0c1.0317688 2.3557434 2.5858765 4.285797 4.6623535 5.7901c4.144928 2.9775085 9.31723 4.4662476 15.516876 4.4662476c5.3316956 0 9.928314 -0.9717407 13.789825 -2.9151917c3.8792114 -1.9559326 7.395294 -4.5036316 10.548279 -7.643097c0.5314026 3.438446 2.1875916 6.060913 4.968567 7.86734c2.7810059 1.7939758 6.4565125 2.6909485 11.02655 2.6909485c5.987091 0 11.938782 -1.4700623 17.855042 -4.410187c1.2829895 -0.6383667 2.521698 -1.401123 3.716095 -2.288208l0 0l-1.8099365 6.0069885l23.487885 0l13.072418 -43.634735c2.497589 -1.6070862 4.534607 -2.734558 6.111084 -3.3823853c1.5765076 -0.64782715 3.5072327 -0.9717407 5.792267 -0.9717407c0.86795044 0 1.4613342 0.23046875 1.7801819 0.69143677c0.33654785 0.4609375 0.6731262 1.1835327 1.0096741 2.1677246c0.42510986 1.5323486 1.0450745 2.7033997 1.8598938 3.5131836c0.81481934 0.79733276 2.4267273 1.1959839 4.835724 1.1959839c3.7020874 0 6.5805054 -0.84091187 8.635254 -2.522766c2.0724487 -1.6818542 3.1087036 -3.6315613 3.1087036 -5.849121c0 -2.379486 -1.0097046 -4.410187 -3.0289917 -6.092041c-2.001587 -1.6818542 -4.7471924 -2.522766 -8.236694 -2.522766c-3.4895325 0 -6.731079 0.6166687 -9.724609 1.8500366c-2.97583 1.2208862 -6.3148193 2.9775085 -10.016876 5.269806l2.1255798 -7.1198425l-23.514435 0l-11.114807 36.888947l0 0c-1.3092346 3.196869 -3.0754395 5.7880554 -5.298584 7.7735596c-2.2318726 1.9933167 -4.871155 2.9899597 -7.9178467 2.9899597c-4.463745 0 -6.695648 -1.6444702 -6.695648 -4.933441c0 -1.3081055 0.22143555 -2.5352173 0.6642761 -3.681366l11.743927 -39.03766l-23.514435 0l-1.7801819 6.092041l0 -0.80355835c0 -1.769043 -1.089386 -3.1893005 -3.2681274 -4.260681c-2.1787415 -1.0714111 -5.4999695 -1.6071167 -9.963745 -1.6071167c-8.821228 0 -16.411377 2.1677246 -22.770447 6.503174c-6.3591003 4.3229675 -11.150543 9.605225 -14.374359 15.846771c-3.2061157 6.2290955 -4.8091736 12.177856 -4.8091736 17.846313c0 0.32766724 0.005493164 0.6508789 0.016448975 0.9696045l0 0c-1.0291748 1.3552551 -2.2874146 2.5457458 -3.7746887 3.5714111c-2.710144 1.8687134 -5.650543 2.80307 -8.821228 2.80307c-2.391327 0 -4.100647 -0.32391357 -5.1280212 -0.9717102c-1.0273743 -0.66030884 -1.5410461 -1.7503967 -1.5410461 -3.2702942c0 -1.3081055 0.21255493 -2.5352173 0.6376648 -3.681366l18.784973 -62.004288l-24.17868 2.298523l-10.939362 36.045334l0 0c-0.21600342 0.063690186 -0.43295288 0.12677002 -0.6508484 0.1892395c-4.6763306 1.3330383 -8.812378 1.9995422 -12.408173 1.9995422c-0.86795044 0 -1.4613647 -0.037384033 -1.7802124 -0.11212158l0 -0.11212158c0 -12.246368 -6.9701843 -18.369568 -20.910553 -18.369568c-10.220581 0 -18.705261 2.3172302 -25.45404 6.95166c-6.7487793 4.6219788 -11.646515 10.109802 -14.693207 16.46347c-3.046692 6.3536377 -4.5700226 12.134247 -4.5700226 17.341736c0 0.24313354 0.0034942627 0.48373413 0.010498047 0.72180176l0 0c-1.2055054 1.6873474 -2.4110107 3.0351868 -3.6165466 4.043457c-1.9484558 1.6444702 -4.552307 2.4667053 -7.811569 2.4667053c-2.409027 0 -4.100662 -0.41732788 -5.074875 -1.2520447c-0.97424316 -0.84713745 -1.4613495 -2.0368958 -1.4613495 -3.5692444c0 -1.3081055 0.3542633 -3.0896301 1.0628052 -5.3445435c0.70854187 -2.2549438 1.4967957 -4.5721436 2.3647308 -6.95166c1.4170532 -3.899414 2.506424 -7.207062 3.268097 -9.922943c0.76168823 -2.7158813 1.1425171 -5.1825867 1.1425171 -7.4001465c0 -4.3728027 -1.6384888 -7.630615 -4.915451 -9.7734375c-3.259262 -2.1427917 -7.661026 -3.214203 -13.2052765 -3.214203c-7.2978973 0 -13.6658325 2.1428223 -19.103806 6.428406l8.821228 -28.927841zm-136.15448 -6.316284c-6.961334 0 -13.223 0.9219055 -18.784973 2.7657013c-5.544277 1.8313599 -9.892906 4.335449 -13.04586 7.512268c-3.1529808 3.1768494 -4.729454 6.7585754 -4.729454 10.745178c0 4.048889 1.4967651 7.780121 4.490326 11.193665c2.993557 3.401062 7.421894 7.474884 13.284988 12.221466c5.668251 4.597046 9.910599 8.502686 12.72702 11.716888c2.834137 3.214203 4.25119 6.621521 4.25119 10.221924c0 4.123657 -1.8776169 7.549652 -5.6328354 10.277985c-3.7552109 2.7158813 -8.511238 4.073822 -14.268074 4.073822c-4.6763153 0 -8.43153 -0.99664307 -11.265671 -2.9899597c-2.8341408 -1.9933167 -4.251194 -4.63443 -4.251194 -7.923401c0 -3.6004028 1.6827545 -6.453308 5.048294 -8.558746c3.383236 -2.1054382 7.9089775 -3.158142 13.577259 -3.158142c-0.65540314 -2.3670654 -2.293892 -4.217102 -4.915447 -5.55011c-2.603859 -1.3454895 -5.8099785 -2.018219 -9.618332 -2.018219c-4.1449165 0 -7.935547 0.80352783 -11.371948 2.4106445c-3.4186535 1.6070862 -6.1376667 3.787262 -8.156984 6.5405273c-2.0016212 2.7532654 -3.002407 5.811737 -3.002407 9.175446c0 3.9866028 1.4082088 7.4935913 4.2246265 10.520905c2.834114 3.0148926 6.8638763 5.3694763 12.08934 7.0637817c5.225437 1.6818542 11.265671 2.5227966 18.120724 2.5227966c8.165829 0 15.596577 -1.1461487 22.29221 -3.438446c6.695633 -2.304779 11.974213 -5.4442444 15.835709 -9.418396c3.861496 -3.9866028 5.7922516 -8.427948 5.7922516 -13.324005c0 -3.6004028 -0.9565201 -6.95166 -2.8695602 -10.053741c-1.8953094 -3.1020813 -4.1803284 -5.8366394 -6.855049 -8.203705c-2.6569977 -2.379486 -6.164238 -5.2137146 -10.521713 -8.502686c-5.3317184 -4.1361084 -9.255226 -7.524719 -11.7705 -10.165863c-2.4975739 -2.6411133 -3.7463684 -5.4878235 -3.7463684 -8.54007c0 -3.3761597 1.3904877 -6.1543274 4.1714935 -8.334503c2.7809982 -2.180191 6.3502197 -3.270279 10.707695 -3.270279c3.578102 0 6.403366 0.72880554 8.475822 2.1864166c2.072464 1.4576111 3.1086884 3.407318 3.1086884 5.8490906c0 1.9185791 -0.6022568 3.7561646 -1.8067551 5.5127563c-1.1868057 1.7565918 -2.8164215 3.1768188 -4.888878 4.260681c2.4975739 2.3670654 5.818825 3.5505676 9.9637375 3.5505676c3.7020798 0 6.6956406 -0.99664307 8.9806595 -2.9899292c2.2850113 -1.9933167 3.4275208 -4.5970764 3.4275208 -7.8112793c0 -4.896057 -2.6392746 -8.795471 -7.9178543 -11.698227c-5.278572 -2.915207 -12.328468 -4.3728027 -21.149696 -4.3728027zm516.3367 89.43715l-1.9396362 6.783478c-0.99194336 3.1394653 -2.355896 5.4130554 -4.091797 6.8208313c-1.7359009 1.420227 -3.586914 2.1303406 -5.5531006 2.1303406c-1.7359009 0 -3.2592163 -0.4048767 -4.5700073 -1.2146606c-1.310791 -0.79730225 -1.9661865 -1.6569214 -1.9661865 -2.578827c0 -2.902771 1.576477 -5.2760315 4.729431 -7.1198425c3.1707153 -1.8313599 7.6344604 -3.438446 13.391296 -4.8213196zm-35.243713 -83.120865l-24.17865 2.298523l-17.456482 57.519363c-0.86798096 3.0646973 -1.3019409 5.5563354 -1.3019409 7.474884c0 4.5845947 1.6030884 8.029297 4.809143 10.334045c3.2061157 2.2922974 7.421936 3.438446 12.647339 3.438446c6.199646 0 12.452454 -1.4700623 18.758423 -4.410187c2.8305664 -1.3216248 5.430481 -3.1762085 7.7996826 -5.5637207l0 0c0.6711426 2.739746 2.1315308 4.9182434 4.3812256 6.5354614c3.2061157 2.2922974 7.421875 3.438446 12.647339 3.438446c7.7229614 0 14.3654785 -2.2175293 19.92743 -6.652649l0 0l-1.6473389 5.0455627c-6.4121704 1.3703918 -11.522461 2.6660461 -15.330872 3.8869324c-3.8083496 1.2333679 -6.917053 2.9214478 -9.32605 5.0642395c-2.3912964 2.1428223 -3.586914 4.896057 -3.586914 8.259766c0 3.6004028 1.9307251 6.56546 5.7922363 8.895142c3.8792114 2.3421326 8.369568 3.5131836 13.470947 3.5131836c6.642517 0 12.709351 -1.420227 18.20044 -4.260681c5.50885 -2.828003 9.352661 -7.910919 11.531372 -15.248779l19.90094 -66.60135l-23.673828 0l-11.079712 36.851257c-1.310791 3.1394348 -3.055542 5.6123962 -5.234253 7.4188232c-2.178772 1.7939758 -4.791504 2.6909485 -7.838196 2.6909485c-3.2592163 0 -4.888855 -1.6818237 -4.888855 -5.045532c0 -0.9966736 0.15942383 -1.9559326 0.47827148 -2.8778381l11.770508 -39.03766l-23.514465 0l-11.106201 36.851257l-0.0119018555 0c-1.1868286 2.9899597 -3.144104 5.4255066 -5.8719482 7.3067017c-2.710144 1.8687134 -5.6505737 2.80307 -8.821289 2.80307c-2.3912964 0 -4.100586 -0.32391357 -5.1279907 -0.9717102c-1.0273438 -0.66030884 -1.5410156 -1.7503967 -1.5410156 -3.2702942c0 -1.3081055 0.21252441 -2.5352173 0.6376343 -3.681366l18.784973 -62.004288z" fill-rule="evenodd"/><path stroke="#ffffff" stroke-width="1.0" stroke-linejoin="round" stroke-linecap="butt" d="m758.24854 255.69214l-9.458923 31.22638c-5.4556885 -1.6070862 -12.098206 -2.94635 -19.92749 -4.017761c4.782593 -6.8021545 9.706909 -12.595184 14.772888 -17.37912c5.06604 -4.7839355 9.937195 -8.060455 14.613525 -9.829498zm79.98071 -8.147644c-8.90979 0 -17.828491 1.4389191 -26.755981 4.316757c-8.92749 2.8653717 -16.251953 6.61528 -21.973389 11.24971c-5.7036743 4.6219788 -8.555542 9.381012 -8.555542 14.277069c0 3.9866028 1.4348145 6.8395386 4.3043823 8.558746c2.887268 1.7192383 7.2713013 2.5788574 13.1521 2.5788574c0 -0.14950562 -0.38079834 -0.778656 -1.1425171 -1.8874207c-0.7616577 -1.1087646 -1.142456 -3.077179 -1.142456 -5.905182c0 -8.807922 3.7286377 -15.659912 11.185913 -20.55597c7.4573364 -4.896057 17.828491 -7.3440857 31.113464 -7.3440857c6.731079 0 11.779358 1.4576111 15.144897 4.3728333c3.3832397 2.9027405 5.074829 6.6464233 5.074829 11.231018c0 4.1361084 -1.2487793 8.346985 -3.746338 12.632568c-2.4975586 4.285614 -5.95166 7.8860474 -10.362305 10.801239c-4.4105835 2.9027405 -9.228638 4.509857 -14.454041 4.8213196l11.584473 -38.346222l-24.1521 2.2798462l-22.185913 73.029755l23.487854 0l9.963745 -32.721375l0.82366943 0c9.3526 0 17.615906 -1.5074463 24.789795 -4.5223083c7.1915894 -3.0273438 12.71814 -6.9143066 16.57965 -11.660858c1.4995728 -1.8432312 2.7079468 -3.7043152 3.625183 -5.5832825l0 0c0.37719727 3.0679321 1.7772217 5.3276978 4.200012 6.7792664c2.887268 1.7192383 7.2713013 2.5788574 13.1521 2.5788574c0 -0.14950562 -0.38079834 -0.778656 -1.1425171 -1.8874207c-0.7616577 -1.1087646 -1.142456 -3.077179 -1.142456 -5.905182c0 -6.1293945 1.9838867 -11.318237 5.95166 -15.566467c3.9854736 -4.24823 9.618347 -7.406372 16.898499 -9.474426l0 0l-23.647278 77.963196l23.487854 0l25.958862 -85.8866c-2.8341064 -0.14949036 -5.0128784 -0.22424316 -6.536194 -0.22424316c-8.909851 0 -17.828491 1.4389191 -26.755981 4.316757c-8.92749 2.8653717 -16.251953 6.61528 -21.973389 11.24971c-2.765686 2.2411804 -4.86084 4.514618 -6.2854614 6.8202515l0 0c-0.049743652 -4.035675 -1.4397583 -7.7230835 -4.170105 -11.062256c-2.7633057 -3.4135284 -7.0322266 -6.1543274 -12.806763 -8.222382c-5.756836 -2.0680542 -12.939575 -3.1020813 -21.548218 -3.1020813zm-67.25372 0c-9.033752 0 -18.528137 3.158142 -28.483032 9.474426c-9.954895 6.316284 -19.396057 14.445251 -28.323547 24.386871c-3.3655396 -0.22424316 -6.190796 -0.33639526 -8.47583 -0.33639526c-6.217407 0 -11.88562 0.635376 -17.004822 1.9061279c-5.1014404 1.2582703 -9.095764 2.9588013 -11.983032 5.101593c-2.887268 2.1428223 -4.3309326 4.516083 -4.3309326 7.1198425c0 2.1428223 0.9211426 3.7872925 2.7633057 4.933441c1.8599243 1.1461487 4.3131714 1.7192383 7.3598633 1.7192383c2.621582 0 4.800293 -0.39868164 6.536255 -1.1959839c1.7359009 -0.80978394 2.6038208 -1.9060974 2.6038208 -3.288971c0 -0.8346863 -0.24798584 -1.632019 -0.7439575 -2.3919678c-0.47827148 -0.7723999 -0.93878174 -1.1585999 -1.3816528 -1.1585999c0.9920044 -1.9185486 3.0644531 -3.3325806 6.217407 -4.2420044c3.152954 -0.9219055 7.4484863 -1.4949951 12.886414 -1.7192383l0 0c-7.173889 8.720734 -12.9661255 17.410278 -17.37677 26.068726c-4.4105835 8.645966 -6.615906 15.529083 -6.615906 20.649384c0 3.675171 1.1159668 6.3910522 3.3478394 8.147644c2.2318726 1.7690735 4.871155 2.8778381 7.9178467 3.3263245c3.046692 0.46096802 6.5805054 0.69143677 10.601379 0.69143677c-1.5233154 -1.3703918 -2.2849731 -3.5131836 -2.2849731 -6.428406c0 -5.8927307 1.9838867 -13.753815 5.95166 -23.583313c3.9854736 -9.841949 9.078064 -19.465881 15.27771 -28.871796c3.8084106 0.22424316 7.3953247 0.64160156 10.760864 1.2520447c3.3832397 0.61047363 7.085327 1.5697327 11.106262 2.8778381l-12.567627 41.672577l23.514465 0l25.640015 -84.50374c-3.3832397 -1.0713959 -7.687561 -1.6071014 -12.913025 -1.6071014z" fill-rule="evenodd"/><path stroke="#ffffff" stroke-width="1.0" stroke-linejoin="round" stroke-linecap="butt" d="m524.7966 421.5975c2.7278442 0 4.8534546 1.0714111 6.376831 3.214203c1.5233154 2.1428223 2.2849731 4.746582 2.2849731 7.8112793c0 4.0489197 -0.87677 8.278442 -2.6304321 12.688629c-1.7359009 4.3977356 -4.0740356 8.0729065 -7.0144653 11.025482c-2.9226685 2.9401245 -6.0756226 4.410187 -9.458923 4.410187c-5.7568054 0 -8.635223 -1.7628174 -8.635223 -5.2884827c0 -0.8347168 0.15942383 -1.7130127 0.47827148 -2.6348877l8.980621 -29.170807c0.76171875 -0.6852112 2.1433105 -1.1959839 4.1449585 -1.5323486c2.019287 -0.34884644 3.84375 -0.5232544 5.4733887 -0.5232544zm-225.42023 -1.8500366c2.1610413 0 3.675537 0.47964478 4.5434875 1.4389343c0.88565063 0.95925903 1.4347534 2.7033997 1.6473389 5.232422c-3.3655396 0.99664307 -5.0483093 3.0646973 -5.0483093 6.2041626c0 2.7532349 1.4613647 4.3603516 4.3840637 4.8213196c-0.86795044 4.435089 -2.2850342 8.471527 -4.2512207 12.109314c-1.9484558 3.6377869 -4.23349 6.5093994 -6.8550415 8.614838c-2.6038513 2.1054382 -5.207733 3.158142 -7.8115845 3.158142c-3.152954 0 -5.3316956 -0.6291504 -6.536194 -1.8874207c-1.2045288 -1.2707214 -1.8067627 -3.7436523 -1.8067627 -7.4188232c0 -3.899414 1.0362244 -8.415497 3.108673 -13.548248c2.0724792 -5.132782 4.7914734 -9.536743 8.156982 -13.211884c3.3832397 -3.675171 6.872772 -5.5127563 10.468567 -5.5127563zm71.66495 0c2.1610107 0 3.6755066 0.47964478 4.543457 1.4389343c0.88568115 0.95925903 1.4347839 2.7033997 1.6473389 5.232422c-3.3655396 0.99664307 -5.048279 3.0646973 -5.048279 6.2041626c0 2.7532349 1.4613342 4.3603516 4.384033 4.8213196c-0.86795044 4.435089 -2.2850037 8.471527 -4.25119 12.109314c-1.9484558 3.6377869 -4.23349 6.5093994 -6.8550415 8.614838c-2.6038818 2.1054382 -5.207733 3.158142 -7.8115845 3.158142c-3.1529846 0 -5.3316956 -0.6291504 -6.5362244 -1.8874207c-1.2044983 -1.2707214 -1.8067627 -3.7436523 -1.8067627 -7.4188232c0 -3.899414 1.0362549 -8.415497 3.1087036 -13.548248c2.0724487 -5.132782 4.791443 -9.536743 8.156982 -13.211884c3.3832397 -3.675171 6.872772 -5.5127563 10.468567 -5.5127563zm-136.48416 -34.664825c-13.16098 0 -24.019257 3.3138428 -32.574783 9.94162c-8.537811 6.615265 -14.737473 14.557343 -18.598984 23.826233c-3.861496 9.256409 -5.792267 17.902374 -5.792267 25.937897c0 10.103577 2.878418 17.33554 8.635254 21.695892c5.774521 4.3603516 14.808319 6.5405273 27.101364 6.5405273c5.4380035 0 11.20369 -0.741272 17.297058 -2.2237854c6.1110992 -1.4949646 11.832489 -3.8495789 17.164215 -7.0637817c2.3405151 -1.4109802 4.4284363 -2.9767761 6.263733 -4.697418l0 0c1.0189972 3.5312805 3.1164398 6.2868347 6.292343 8.266693c4.6763 2.9027405 11.0442505 4.354126 19.10382 4.354126c6.6424866 0 12.789001 -1.4140015 18.439545 -4.2420044c5.668274 -2.840454 10.291443 -6.864441 13.869537 -12.07196c3.5957947 -5.2075195 5.8276978 -11.293335 6.6956177 -18.257446c4.1194763 -0.47143555 8.020874 -1.1699829 11.704254 -2.0955505l0 0c-0.20465088 0.38989258 -0.4020691 0.7832031 -0.59228516 1.1798706c-3.046692 6.353668 -4.570038 12.134247 -4.570038 17.341766c0 6.2789307 2.3381653 10.875977 7.0144653 13.791199c4.6763306 2.9027405 11.0442505 4.354126 19.10382 4.354126c6.6424866 0 12.789032 -1.4140015 18.439575 -4.2420044c5.6682434 -2.840454 10.291443 -6.864441 13.869537 -12.07196c3.5957947 -5.2075195 5.827667 -11.293335 6.6956177 -18.257446c4.8968506 -0.5604248 9.485626 -1.4417114 13.766327 -2.6438599l0 0l-11.130188 36.748077l23.487854 0l8.502411 -28.367218c2.4975586 -1.4451599 4.6940002 -2.510315 6.5893555 -3.1955261c1.9130249 -0.69766235 3.7374878 -1.0464783 5.4733887 -1.0464783c3.932373 0 5.8985596 1.8375549 5.8985596 5.512726c0 1.5323486 -0.22143555 2.94635 -0.6642761 4.2420044l-1.3019104 4.484955c-0.6553955 2.1427917 -0.98309326 4.1298523 -0.98309326 5.961212c0 4.210846 1.7359009 7.4499817 5.2077026 9.717377c3.4895325 2.2549438 8.608673 3.3823853 15.357452 3.3823853c9.150391 0 16.750336 -3.3599854 22.799835 -10.079987l0 0c0.901062 2.5090637 2.605835 4.5858765 5.1143494 6.2304077c3.9146423 2.5663757 9.574036 3.8495789 16.97821 3.8495789c10.663422 0 19.342926 -2.1428223 26.038605 -6.428406c6.6956177 -4.285614 11.487061 -9.430817 14.374329 -15.435669c2.887268 -6.0173035 4.3309326 -11.667053 4.3309326 -16.94934c0 -13.081055 -6.4210815 -19.621613 -19.263245 -19.621613c-1.9661865 0 -3.932373 0.21179199 -5.8985596 0.635376c-1.9484253 0.4111328 -4.446045 1.2707214 -7.492737 2.5788574l7.838135 -25.844482l-24.17865 2.298523l-17.456482 57.51935c-0.0065307617 0.01776123 -0.013061523 0.03555298 -0.01953125 0.05331421l0 0c-1.9560547 3.4238586 -3.9120789 5.9537964 -5.8681335 7.5897827c-1.9484558 1.6444702 -4.5611877 2.4667053 -7.838135 2.4667053c-4.23349 0 -6.3502197 -1.4140015 -6.3502197 -4.2420044c0 -1.0713806 0.27453613 -2.298523 0.82366943 -3.681366l1.7801819 -5.7369995c0.44284058 -1.3081055 0.6642456 -2.7657166 0.6642456 -4.3728027c0 -3.899414 -1.523346 -7.113617 -4.570038 -9.642639c-3.046692 -2.5289917 -7.510437 -3.793518 -13.391266 -3.793518c-1.9661865 0 -3.7640686 0.1557312 -5.3937073 0.4671936l32.65451 -15.958893l-16.154541 0l-31.511993 17.453888l12.248749 -40.420532l-24.17868 2.298523l-10.915161 36.038208l0 0c-0.22399902 0.06613159 -0.44900513 0.1315918 -0.6750488 0.19638062c-4.6763306 1.3330078 -8.812378 1.9995422 -12.408173 1.9995422c-0.86798096 0 -1.4613647 -0.037384033 -1.7802124 -0.11212158l0 -0.11212158c0 -12.246399 -6.9701843 -18.369568 -20.910553 -18.369568c-10.220581 0 -18.705261 2.3171997 -25.45404 6.95166c-4.1044006 2.8109436 -7.52417 5.9421387 -10.259277 9.393585l0 0c-0.28259277 0.08407593 -0.566803 0.16708374 -0.85269165 0.24902344c-4.6763 1.3330078 -8.812378 1.9995422 -12.408173 1.9995422c-0.86795044 0 -1.4613647 -0.037384033 -1.7801819 -0.11212158l0 -0.11212158c0 -12.246399 -6.970215 -18.369568 -20.910583 -18.369568c-10.220581 0 -18.705261 2.3171997 -25.45404 6.95166c-6.7487793 4.6219482 -11.646515 10.109772 -14.693176 16.46344c-2.92424 6.0982666 -4.445114 11.66861 -4.5626526 16.71103l0 0c-3.3006744 2.5520935 -7.063385 4.5999146 -11.288116 6.1434937c-5.4380035 1.980835 -11.363098 2.9712524 -17.775314 2.9712524c-7.404175 0 -12.523331 -1.526123 -15.357452 -4.578369c-2.8164062 -3.0646973 -4.2246246 -7.5060425 -4.2246246 -13.324005c0 -7.8112793 1.6030426 -15.921539 4.8091736 -24.33078c3.2061157 -8.421753 7.4218903 -15.404541 12.647308 -20.948425c5.2254333 -5.5563354 10.725418 -8.334503 16.499954 -8.334503c3.471817 0 5.9959564 0.65405273 7.5724335 1.9621582c1.576477 1.2956543 2.3647308 2.9775085 2.3647308 5.0455627c0 2.2175598 -0.761673 4.3603516 -2.285019 6.428406c-1.5233307 2.0680542 -3.2592316 3.4447021 -5.207718 4.129883c2.285019 1.9933167 5.384857 2.9899597 9.2994995 2.9899597c3.914627 0 6.793045 -0.9405823 8.635239 -2.8217773c1.8598938 -1.8811951 2.789856 -4.4662476 2.789856 -7.755188c0 -5.1950684 -2.5064392 -9.057098 -7.5193024 -11.586121c-4.995163 -2.5289917 -11.575668 -3.7934875 -19.7415 -3.7934875z" fill-rule="evenodd"/><path stroke="#ffffff" stroke-width="1.0" stroke-linejoin="round" stroke-linecap="butt" d="m599.7487 419.74747c2.1610718 0 3.675537 0.47964478 4.543518 1.4389343c0.8856201 0.95925903 1.4347534 2.7033997 1.6473389 5.232422c-3.3655396 0.99664307 -5.04834 3.0646973 -5.04834 6.2041626c0 2.7532349 1.4613647 4.3603516 4.384094 4.8213196c-0.86798096 4.435089 -2.2850342 8.471527 -4.2512207 12.109314c-1.9484863 3.6377869 -4.2335205 6.5093994 -6.8550415 8.614838c-2.6038818 2.1054382 -5.2077026 3.158142 -7.8115845 3.158142c-3.152954 0 -5.331726 -0.6291504 -6.536194 -1.8874207c-1.2045288 -1.2707214 -1.8067627 -3.7436523 -1.8067627 -7.4188232c0 -3.899414 1.0361938 -8.415497 3.1086426 -13.548248c2.0725098 -5.132782 4.791504 -9.536743 8.156982 -13.211884c3.3833008 -3.675171 6.8728027 -5.5127563 10.468567 -5.5127563zm71.66498 0c2.1610107 0 3.675476 0.47964478 4.543457 1.4389343c0.88568115 0.95925903 1.4347534 2.7033997 1.6473389 5.232422c-3.3655396 0.99664307 -5.048279 3.0646973 -5.048279 6.2041626c0 2.7532349 1.4613037 4.3603516 4.384033 4.8213196c-0.86798096 4.435089 -2.2850342 8.471527 -4.2512207 12.109314c-1.9484253 3.6377869 -4.2334595 6.5093994 -6.8550415 8.614838c-2.6038818 2.1054382 -5.2077026 3.158142 -7.8115845 3.158142c-3.152954 0 -5.331665 -0.6291504 -6.536194 -1.8874207c-1.2045288 -1.2707214 -1.8067627 -3.7436523 -1.8067627 -7.4188232c0 -3.899414 1.0362549 -8.415497 3.1087036 -13.548248c2.0724487 -5.132782 4.791443 -9.536743 8.156982 -13.211884c3.3832397 -3.675171 6.8727417 -5.5127563 10.468567 -5.5127563zm69.53931 -28.927856l-24.17865 2.298523l-10.915161 36.038208l0 0c-0.22399902 0.06613159 -0.44903564 0.1315918 -0.6750488 0.19638062c-4.6763306 1.3330078 -8.812378 1.9995422 -12.408203 1.9995422c-0.8679199 0 -1.4613647 -0.037384033 -1.7802124 -0.11212158l0 -0.11212158c0 -12.246399 -6.970154 -18.369568 -20.910522 -18.369568c-10.220581 0 -18.705261 2.3171997 -25.45404 6.95166c-4.104431 2.8109436 -7.52417 5.9421387 -10.259277 9.393585l0 0c-0.28259277 0.08407593 -0.5668335 0.16708374 -0.85272217 0.24902344c-4.6762695 1.3330078 -8.812378 1.9995422 -12.408142 1.9995422c-0.86798096 0 -1.4613647 -0.037384033 -1.7802124 -0.11212158l0 -0.11212158c0 -12.246399 -6.970215 -18.369568 -20.910583 -18.369568c-10.220581 0 -18.705261 2.3171997 -25.45404 6.95166c-6.7487793 4.6219482 -11.646484 10.109772 -14.693176 16.46344c-3.046692 6.353668 -4.5700073 12.134247 -4.5700073 17.341766c0 6.2789307 2.3381348 10.875977 7.0144653 13.791199c4.6762695 2.9027405 11.0442505 4.354126 19.10382 4.354126c6.642456 0 12.789001 -1.4140015 18.439514 -4.2420044c5.668274 -2.840454 10.291443 -6.864441 13.869568 -12.07196c3.5957642 -5.2075195 5.8276978 -11.293335 6.6956177 -18.257446c4.119446 -0.47143555 8.020874 -1.1699829 11.704224 -2.0955505l0 0c-0.20465088 0.38989258 -0.40203857 0.7832031 -0.59228516 1.1798706c-3.046692 6.353668 -4.5700073 12.134247 -4.5700073 17.341766c0 6.2789307 2.3381348 10.875977 7.0144653 13.791199c4.6763306 2.9027405 11.0442505 4.354126 19.10382 4.354126c6.642517 0 12.789001 -1.4140015 18.439575 -4.2420044c5.668274 -2.840454 10.291443 -6.864441 13.869507 -12.07196c3.5958252 -5.2075195 5.8276978 -11.293335 6.6956177 -18.257446c4.8969116 -0.5604248 9.485657 -1.4417114 13.766357 -2.6438599l0 0l-11.130188 36.748077l23.487854 0l8.50238 -28.367218c2.4975586 -1.4451599 4.694031 -2.510315 6.5893555 -3.1955261c1.9130249 -0.69766235 3.7375488 -1.0464783 5.4733887 -1.0464783c3.932373 0 5.8985596 1.8375549 5.8985596 5.512726c0 1.5323486 -0.22137451 2.94635 -0.6642456 4.2420044l-1.3019409 4.484955c-0.6553955 2.1427917 -0.98309326 4.1298523 -0.98309326 5.961212c0 4.210846 1.7359009 7.4499817 5.2077026 9.717377c3.489563 2.2549438 8.608704 3.3823853 15.357483 3.3823853c1.6296387 0 3.6135254 -0.46096802 5.95166 -1.382843c2.3381958 -0.9219055 4.4017944 -2.2611694 6.190796 -4.017761c1.8067627 -1.7566223 2.8252563 -3.899414 3.055542 -6.428406c-0.1239624 0 -0.5136719 0.11831665 -1.1690674 0.3550415c-0.6376953 0.22424316 -2.1610107 0.33636475 -4.5700073 0.33636475c-4.2335205 0 -6.3502197 -1.4140015 -6.3502197 -4.2420044c0 -1.0713806 0.27453613 -2.298523 0.82366943 -3.681366l1.7801514 -5.7369995c0.4428711 -1.3081055 0.6642456 -2.7657166 0.6642456 -4.3728027c0 -3.899414 -1.5233154 -7.113617 -4.5700073 -9.642639c-3.046692 -2.5289917 -7.510437 -3.793518 -13.391296 -3.793518c-1.9661865 0 -3.7640991 0.1557312 -5.3936768 0.4671936l32.65448 -15.958893l-16.154541 0l-31.511963 17.453888l12.248718 -40.420532z" fill-rule="evenodd"/></g></g></svg>