<svg color-interpolation="auto" color-rendering="auto" fill="black" fill-opacity="1" font-family="'Dialog'" font-size="12" font-style="normal" font-weight="normal" height="68.49" image-rendering="auto" shape-rendering="auto" stroke="black" stroke-dasharray="none" stroke-dashoffset="0" stroke-linecap="square" stroke-linejoin="miter" stroke-miterlimit="10" stroke-opacity="1" stroke-width="1" text-rendering="auto" viewBox="0 0 10608 2283" width="318.24" xmlns="http://www.w3.org/2000/svg"><g><g fill="white" stroke="white"><rect height="2283" stroke="none" width="10608" x="0" y="0"/></g><g stroke-linecap="round" stroke-linejoin="round" stroke-width="44" text-rendering="geometricPrecision" transform="translate(32866,32758)"><line fill="none" x1="-27178" x2="-26132" y1="-31899" y2="-31899"/><line fill="none" x1="-27178" x2="-26132" y1="-31988" y2="-31988"/><line fill="none" x1="-27178" x2="-26132" y1="-31809" y2="-31809"/><line fill="none" x1="-27178" x2="-28227" y1="-31899" y2="-31899"/><line fill="none" x1="-28227" x2="-29134" y1="-31899" y2="-31376"/><line fill="none" x1="-29134" x2="-30041" y1="-31376" y2="-31899"/><line fill="none" x1="-30041" x2="-30948" y1="-31899" y2="-31376"/><line fill="none" x1="-30948" x2="-31855" y1="-31376" y2="-31899"/><line fill="none" x1="-31855" x2="-32762" y1="-31899" y2="-31376"/><line fill="none" x1="-26132" x2="-25084" y1="-31899" y2="-31899"/><line fill="none" x1="-25084" x2="-24364" y1="-31899" y2="-32315"/><line fill="none" x1="-23989" x2="-23270" y1="-32315" y2="-31899"/><line fill="none" x1="-23270" x2="-22362" y1="-31899" y2="-32422"/><line fill="none" x1="-25014" x2="-25014" y1="-31899" y2="-31070"/><line fill="none" x1="-25153" x2="-25153" y1="-31899" y2="-31070"/><text font-family="sans-serif" font-size="433.3333" stroke="none" x="-24330" xml:space="preserve" y="-32242">O</text><text font-family="sans-serif" font-size="433.3333" stroke="none" x="-25237" xml:space="preserve" y="-30671">O</text></g></g></svg>