<svg color-interpolation="auto" color-rendering="auto" fill="black" fill-opacity="1" font-family="'Dialog'" font-size="12" font-style="normal" font-weight="normal" height="111.48" image-rendering="auto" shape-rendering="auto" stroke="black" stroke-dasharray="none" stroke-dashoffset="0" stroke-linecap="square" stroke-linejoin="miter" stroke-miterlimit="10" stroke-opacity="1" stroke-width="1" text-rendering="auto" viewBox="0 0 11249 3716" width="337.47" xmlns="http://www.w3.org/2000/svg"><g><g fill="white" stroke="white"><rect height="3716" stroke="none" width="11249" x="0" y="0"/></g><g stroke-linecap="round" stroke-linejoin="round" stroke-width="44" text-rendering="geometricPrecision" transform="translate(32866,32758)"><line fill="none" x1="-29134" x2="-28146" y1="-30850" y2="-31419"/><line fill="none" x1="-28926" x2="-28186" y1="-30775" y2="-31202"/><line fill="none" x1="-29134" x2="-29134" y1="-29715" y2="-30850"/><line fill="none" x1="-28146" x2="-27164" y1="-31419" y2="-30850"/><line fill="none" x1="-28146" x2="-29134" y1="-29146" y2="-29715"/><line fill="none" x1="-28186" x2="-28926" y1="-29362" y2="-29790"/><line fill="none" x1="-27164" x2="-27164" y1="-30850" y2="-29715"/><line fill="none" x1="-27334" x2="-27334" y1="-30708" y2="-29856"/><line fill="none" x1="-27164" x2="-28146" y1="-29715" y2="-29146"/><line fill="none" x1="-27164" x2="-26257" y1="-30850" y2="-31376"/><line fill="none" x1="-26257" x2="-25350" y1="-31376" y2="-30850"/><line fill="none" x1="-25350" x2="-24442" y1="-30850" y2="-31376"/><line fill="none" x1="-29134" x2="-30041" y1="-30850" y2="-31376"/><line fill="none" x1="-24442" x2="-23723" y1="-31376" y2="-30960"/><line fill="none" x1="-23348" x2="-22628" y1="-30960" y2="-31376"/><line fill="none" x1="-22628" x2="-21721" y1="-31376" y2="-30850"/><line fill="none" x1="-24512" x2="-24512" y1="-31376" y2="-32202"/><line fill="none" x1="-24373" x2="-24373" y1="-31376" y2="-32202"/><line fill="none" x1="-30041" x2="-30760" y1="-31376" y2="-30960"/><line fill="none" x1="-31136" x2="-31855" y1="-30960" y2="-31376"/><line fill="none" x1="-31855" x2="-32762" y1="-31376" y2="-30850"/><line fill="none" x1="-30110" x2="-30110" y1="-31376" y2="-32202"/><line fill="none" x1="-29972" x2="-29972" y1="-31376" y2="-32202"/><text font-family="sans-serif" font-size="433.3333" stroke="none" x="-31101" xml:space="preserve" y="-30671">O</text><text font-family="sans-serif" font-size="433.3333" stroke="none" x="-30194" xml:space="preserve" y="-32242">O</text><text font-family="sans-serif" font-size="433.3333" stroke="none" x="-23688" xml:space="preserve" y="-30671">O</text><text font-family="sans-serif" font-size="433.3333" stroke="none" x="-24596" xml:space="preserve" y="-32242">O</text></g></g></svg>