<svg color-interpolation="auto" color-rendering="auto" fill="black" fill-opacity="1" font-family="'Dialog'" font-size="12" font-style="normal" font-weight="normal" height="75.42" image-rendering="auto" shape-rendering="auto" stroke="black" stroke-dasharray="none" stroke-dashoffset="0" stroke-linecap="square" stroke-linejoin="miter" stroke-miterlimit="10" stroke-opacity="1" stroke-width="1" text-rendering="auto" viewBox="0 0 6745 2514" width="202.35" xmlns="http://www.w3.org/2000/svg"><g><g fill="white" stroke="white"><rect height="2514" stroke="none" width="6745" x="0" y="0"/></g><g stroke-linecap="round" stroke-linejoin="round" stroke-width="44" text-rendering="geometricPrecision" transform="translate(32866,32758)"><line fill="none" x1="-30836" x2="-31159" y1="-31448" y2="-30512"/><line fill="none" x1="-31549" x2="-30948" y1="-32277" y2="-31812"/><line fill="none" x1="-31159" x2="-32404" y1="-30512" y2="-30512"/><line fill="none" x1="-31315" x2="-32248" y1="-30680" y2="-30680"/><line fill="none" x1="-32762" x2="-31925" y1="-31668" y2="-32283"/><line fill="none" x1="-32554" x2="-31930" y1="-31607" y2="-32069"/><line fill="none" x1="-32404" x2="-32762" y1="-30512" y2="-31668"/><line fill="none" x1="-30573" x2="-29853" y1="-31774" y2="-32190"/><line fill="none" x1="-29853" x2="-28946" y1="-32190" y2="-31668"/><line fill="none" x1="-28946" x2="-28227" y1="-31668" y2="-32084"/><line fill="none" x1="-27848" x2="-27132" y1="-32084" y2="-31668"/><line fill="none" x1="-27132" x2="-26225" y1="-31668" y2="-32190"/><line fill="none" x1="-28874" x2="-28874" y1="-31668" y2="-30838"/><line fill="none" x1="-29016" x2="-29016" y1="-31668" y2="-30838"/><text font-family="sans-serif" font-size="433.3333" stroke="none" x="-28189" xml:space="preserve" y="-32011">O</text><text font-family="sans-serif" font-size="433.3333" stroke="none" x="-29096" xml:space="preserve" y="-30440">O</text><text font-family="sans-serif" font-size="433.3333" stroke="none" x="-30911" xml:space="preserve" y="-31488">N</text><text font-family="sans-serif" font-size="433.3333" stroke="none" x="-31890" xml:space="preserve" y="-32242">N</text></g></g></svg>