<svg color-interpolation="auto" color-rendering="auto" fill="black" fill-opacity="1" font-family="'Dialog'" font-size="12" font-style="normal" font-weight="normal" height="111.48" image-rendering="auto" shape-rendering="auto" stroke="black" stroke-dasharray="none" stroke-dashoffset="0" stroke-linecap="square" stroke-linejoin="miter" stroke-miterlimit="10" stroke-opacity="1" stroke-width="1" text-rendering="auto" viewBox="0 0 7620 3716" width="228.6" xmlns="http://www.w3.org/2000/svg"><g><g fill="white" stroke="white"><rect height="3716" stroke="none" width="7620" x="0" y="0"/></g><g stroke-linecap="round" stroke-linejoin="round" stroke-width="44" text-rendering="geometricPrecision" transform="translate(32866,32758)"><line fill="none" x1="-31777" x2="-30792" y1="-31419" y2="-30850"/><line fill="none" x1="-30792" x2="-30792" y1="-30850" y2="-29715"/><line fill="none" x1="-32762" x2="-31777" y1="-30850" y2="-31419"/><line fill="none" x1="-30792" x2="-31777" y1="-29715" y2="-29146"/><line fill="none" x1="-32762" x2="-32762" y1="-29715" y2="-30850"/><line fill="none" x1="-31777" x2="-32762" y1="-29146" y2="-29715"/><line fill="none" x1="-30792" x2="-29885" y1="-30850" y2="-31376"/><line fill="none" x1="-29885" x2="-28978" y1="-31376" y2="-30850"/><line fill="none" x1="-28978" x2="-28071" y1="-30850" y2="-31376"/><line fill="none" x1="-28071" x2="-27352" y1="-31376" y2="-30960"/><line fill="none" x1="-26976" x2="-26257" y1="-30960" y2="-31376"/><line fill="none" x1="-26257" x2="-25350" y1="-31376" y2="-30850"/><line fill="none" x1="-28140" x2="-28140" y1="-31376" y2="-32202"/><line fill="none" x1="-28002" x2="-28002" y1="-31376" y2="-32202"/><text font-family="sans-serif" font-size="433.3333" stroke="none" x="-27317" xml:space="preserve" y="-30671">O</text><text font-family="sans-serif" font-size="433.3333" stroke="none" x="-28224" xml:space="preserve" y="-32242">O</text></g></g></svg>