<svg color-interpolation="auto" color-rendering="auto" fill="black" fill-opacity="1" font-family="'Dialog'" font-size="12" font-style="normal" font-weight="normal" height="111.48" image-rendering="auto" shape-rendering="auto" stroke="black" stroke-dasharray="none" stroke-dashoffset="0" stroke-linecap="square" stroke-linejoin="miter" stroke-miterlimit="10" stroke-opacity="1" stroke-width="1" text-rendering="auto" viewBox="0 0 5806 3716" width="174.18" xmlns="http://www.w3.org/2000/svg"><g><g fill="white" stroke="white"><rect height="3716" stroke="none" width="5806" x="0" y="0"/></g><g stroke-linecap="round" stroke-linejoin="round" stroke-width="44" text-rendering="geometricPrecision" transform="translate(32866,32758)"><line fill="none" x1="-30792" x2="-30792" y1="-30850" y2="-29715"/><line fill="none" x1="-31774" x2="-30792" y1="-31419" y2="-30850"/><line fill="none" x1="-31737" x2="-31000" y1="-31202" y2="-30775"/><line fill="none" x1="-30792" x2="-31774" y1="-29715" y2="-29146"/><line fill="none" x1="-32762" x2="-31774" y1="-30850" y2="-31419"/><line fill="none" x1="-31774" x2="-32762" y1="-29146" y2="-29715"/><line fill="none" x1="-32762" x2="-32762" y1="-29715" y2="-30850"/><line fill="none" x1="-30792" x2="-29885" y1="-30850" y2="-31376"/><line fill="none" x1="-29885" x2="-29166" y1="-31376" y2="-30960"/><line fill="none" x1="-28790" x2="-28071" y1="-30960" y2="-31376"/><line fill="none" x1="-28071" x2="-27164" y1="-31376" y2="-30850"/><line fill="none" x1="-29954" x2="-29954" y1="-31376" y2="-32202"/><line fill="none" x1="-29816" x2="-29816" y1="-31376" y2="-32202"/><text font-family="sans-serif" font-size="433.3333" stroke="none" x="-29131" xml:space="preserve" y="-30671">O</text><text font-family="sans-serif" font-size="433.3333" stroke="none" x="-30038" xml:space="preserve" y="-32242">NH</text></g></g></svg>